PathFileType	4	(X/Y/Z)	/Users/itak/Documents/Research/Walk-IL/dataset/trc/00435_00167.trc
DataRate	CameraRate	NumFrames	NumMarkers	Units	OrigDataRate	OrigDataStartFrame	OrigNumFrames
100.000000	100.000000	4	53	mm	100.000000	318	510
Frame#	Time	RPSI			LPSI			L3			STRN			T10			C7			CLAV			RBAK			LBAK			LSHO			LUPA			LAEL			LAOL			LWTS			LWPS			LFRA			LIFD			LHPS			LHTS			RSHO			RUPA			RAEL			RAOL			RWTS			RWPS			RFRA			RIFD			RHTS			RHPS			RBHD			LFHD			RFHD			LBHD			LHIP			RHIP			RASI			LASI			LKNE			LTHI			LANK			LTIP			LTOE			LMT1			LMT5			LHEE			RKNE			RTHI			RANK			RTIP			RTOE			RMT1			RMT5			RHEE			
		X1	Y1	Z1	X2	Y2	Z2	X3	Y3	Z3	X4	Y4	Z4	X5	Y5	Z5	X6	Y6	Z6	X7	Y7	Z7	X8	Y8	Z8	X9	Y9	Z9	X10	Y10	Z10	X11	Y11	Z11	X12	Y12	Z12	X13	Y13	Z13	X14	Y14	Z14	X15	Y15	Z15	X16	Y16	Z16	X17	Y17	Z17	X18	Y18	Z18	X19	Y19	Z19	X20	Y20	Z20	X21	Y21	Z21	X22	Y22	Z22	X23	Y23	Z23	X24	Y24	Z24	X25	Y25	Z25	X26	Y26	Z26	X27	Y27	Z27	X28	Y28	Z28	X29	Y29	Z29	X30	Y30	Z30	X31	Y31	Z31	X32	Y32	Z32	X33	Y33	Z33	X34	Y34	Z34	X35	Y35	Z35	X36	Y36	Z36	X37	Y37	Z37	X38	Y38	Z38	X39	Y39	Z39	X40	Y40	Z40	X41	Y41	Z41	X42	Y42	Z42	X43	Y43	Z43	X44	Y44	Z44	X45	Y45	Z45	X46	Y46	Z46	X47	Y47	Z47	X48	Y48	Z48	X49	Y49	Z49	X50	Y50	Z50	X51	Y51	Z51	X52	Y52	Z52	X53	Y53	Z53	

319	3.18	246.2745971679688	906.490966796875	478.4624633789062	318.0437316894531	925.8834228515625	357.1040649414062	285.0193481445312	1009.818420410156	421.6365356445312	508.7480773925781	1200.256469726562	572.3533325195312	277.2226257324219	1133.129638671875	404.5744934082031	318.464111328125	1399.838989257812	458.1191711425781	475.8552551269531	1314.373779296875	556.370361328125	215.3793487548828	1274.458374023438	490.39013671875	358.0391235351562	1360.715698242188	355.5048828125	487.7606201171875	1382.083740234375	364.2251892089844	563.441650390625	1274.254516601562	286.8789367675781	659.4619140625	1080.74169921875	292.1626281738281	568.528564453125	1031.860717773438	281.0567016601562	743.421142578125	931.2608642578125	429.0137634277344	763.4834594726562	900.5513916015625	364.5821228027344	708.1747436523438	1010.436950683594	321.2757263183594	811.9275512695312	785.1531982421875	479.4839172363281	797.11279296875	832.9409790039062	393.7969055175781	793.45458984375	861.32861328125	458.7854614257812	278.2511596679688	1359.116088867188	628.2061157226562	218.6146087646484	1294.949462890625	676.001953125	188.1967926025391	1004.883239746094	708.2745361328125	167.4528961181641	992.32470703125	644.1869506835938	298.9786987304688	804.1889038085938	715.4456176757812	213.36669921875	786.9136962890625	724.0842895507812	186.2948150634766	945.9853515625	715.0875854492188	298.1237487792969	645.4013061523438	714.7603149414062	306.7641906738281	704.512939453125	731.4888305664062	230.4541320800781	700.4868774414062	728.1531372070312	322.2970581054688	1589.353881835938	582.1863403320312	523.7554321289062	1617.266967773438	543.4483642578125	443.5228271484375	1610.661376953125	646.514404296875	418.9841613769531	1603.360595703125	433.1686706542969	486.2569580078125	825.2999877929688	310.0816650390625	292.9291687011719	806.5357666015625	664.6376953125	408.6641235351562	855.668701171875	650.9339599609375	540.5534057617188	849.4271850585938	429.8086242675781	376.3803405761719	412.1338806152344	303.0188598632812	445.7546997070312	557.2025146484375	316.3038330078125	175.9275360107422	55.92710494995117	194.4354248046875	317.3263549804688	268.9523620605469	263.5337524414062	281.454833984375	37.78459167480469	400.8405456542969	215.41455078125	50.81575012207031	366.3485107421875	291.45361328125	37.27972412109375	282.9706115722656	106.3084869384766	77.8302001953125	191.0470733642578	450.9219360351562	438.9606323242188	712.626953125	352.1809997558594	684.5548706054688	710.36181640625	590.4678955078125	35.47906112670898	781.0783081054688	491.3298645019531	307.2111511230469	751.4412841796875	760.7672729492188	138.3413543701172	865.1521606445312	738.9096069335938	115.1332550048828	798.4476928710938	671.0181884765625	80.73735046386719	872.0098266601562	571.2039794921875	14.87654590606689	703.7283935546875	
320	3.19	256.0879516601562	905.0468139648438	487.2978820800781	327.5257873535156	924.421630859375	365.7047729492188	294.6899719238281	1008.005310058594	430.4196166992188	517.876708984375	1199.22900390625	580.741943359375	286.1680297851562	1131.3408203125	413.7542419433594	326.38037109375	1398.375366210938	467.2980346679688	484.5303344726562	1313.233154296875	564.8380737304688	223.8391265869141	1272.472412109375	499.9059753417969	365.3720703125	1359.340454101562	364.5110778808594	495.2608337402344	1380.7900390625	372.2575988769531	569.4559936523438	1272.3466796875	293.913330078125	663.8087158203125	1077.8798828125	297.67041015625	572.2819213867188	1029.861572265625	287.4755249023438	747.3539428710938	927.8853149414062	434.2274475097656	766.9277954101562	896.9988403320312	369.7025756835938	712.1184692382812	1007.19775390625	326.5321960449219	814.8521728515625	781.3712768554688	484.6864013671875	800.2032470703125	829.1287231445312	398.9259033203125	796.8162231445312	857.621337890625	463.8832702636719	286.9083557128906	1357.214721679688	637.5419921875	227.5717926025391	1292.74462890625	685.3628540039062	197.3895416259766	1002.607055664062	716.7463989257812	176.6595611572266	990.299072265625	652.7215576171875	307.4734802246094	801.6947631835938	723.6550903320312	221.859130859375	784.4288330078125	731.6083374023438	195.2746276855469	943.6763305664062	723.465576171875	306.6603698730469	642.9385986328125	722.16357421875	315.013916015625	702.0103149414062	739.2445068359375	239.0231323242188	697.9890747070312	735.1400756835938	329.9545288085938	1588.09521484375	590.7825927734375	531.226318359375	1616.49755859375	551.7723388671875	451.1324768066406	1609.868530273438	654.9275512695312	426.4022827148438	1602.109130859375	441.64794921875	495.4338989257812	823.9241333007812	317.8121948242188	303.6270446777344	805.9437255859375	673.6798706054688	419.2528076171875	854.9698486328125	659.2506713867188	550.2205200195312	847.9266967773438	437.4815979003906	383.2623901367188	411.6063842773438	308.1203918457031	453.7863159179688	556.1286010742188	322.6515197753906	177.6076202392578	59.19997024536133	194.5029754638672	322.1519470214844	269.6832580566406	266.5411682128906	281.4595031738281	37.77872848510742	400.8562622070312	216.0883483886719	51.38157653808594	366.4383850097656	291.9153137207031	37.24789047241211	283.1780395507812	108.6157836914062	83.07688140869141	190.9627380371094	462.4332580566406	438.5982055664062	720.7064819335938	363.3563537597656	684.4210815429688	719.51416015625	594.0382690429688	34.1418342590332	782.134765625	502.2642517089844	305.5838623046875	757.727783203125	768.4635009765625	126.8124694824219	868.9859008789062	745.8738403320312	106.1229934692383	801.64404296875	676.086669921875	73.80767059326172	874.271484375	573.956298828125	16.09847068786621	704.3992919921875	
321	3.2	266.0382385253906	904.0110473632812	496.0679931640625	337.2570495605469	923.0250244140625	374.2518615722656	304.5777587890625	1006.509338378906	439.1978759765625	527.0612182617188	1198.537353515625	589.26171875	295.2164306640625	1129.88623046875	422.9769287109375	334.3413696289062	1397.25048828125	476.6142578125	493.2577209472656	1312.409545898438	573.4065551757812	232.3163909912109	1270.805053710938	509.5567016601562	372.7593688964844	1358.286499023438	373.6740417480469	502.839599609375	1379.802490234375	380.3736572265625	575.416259765625	1270.668823242188	300.9927978515625	667.9060668945312	1075.12451171875	303.1455383300781	575.6917724609375	1028.115966796875	293.9904479980469	750.943603515625	924.2999267578125	439.0990295410156	769.8597412109375	893.2974243164062	374.4064025878906	715.7090454101562	1003.930786132812	331.6086730957031	817.3086547851562	777.2734375	489.2861938476562	802.7476806640625	825.0968627929688	403.5186462402344	799.7902221679688	853.6390380859375	468.4677124023438	295.6270446777344	1355.556640625	647.0298461914062	236.6333160400391	1290.73291015625	694.8616333007812	206.6923980712891	1000.526062011719	725.3654174804688	185.9854888916016	988.4948120117188	661.3826904296875	315.9852600097656	799.3478393554688	731.9403076171875	230.409912109375	782.1755981445312	739.2562255859375	204.3456573486328	941.5738525390625	731.9688720703125	315.1282348632812	640.6280517578125	729.6298217773438	323.1941528320312	699.5913696289062	746.977294921875	247.5414581298828	695.6671752929688	742.2921142578125	337.6622009277344	1587.163818359375	599.5278930664062	538.7508544921875	1616.093872070312	560.2401733398438	458.7853393554688	1609.418090820312	663.480712890625	433.8709106445312	1601.194458007812	450.2781372070312	504.9370727539062	822.535400390625	325.7635803222656	314.4180297851562	806.028076171875	682.8967895507812	429.8822326660156	854.9336547851562	667.7050170898438	560.0122680664062	846.6307983398438	445.427490234375	390.5032348632812	411.1358032226562	313.6309509277344	462.1510314941406	555.1019287109375	329.3980712890625	179.5582427978516	62.83096313476562	194.6762237548828	327.333740234375	270.5961608886719	269.8434143066406	281.4360046386719	37.78915023803711	400.8604125976562	216.8426513671875	51.99559020996094	366.5967102050781	292.4378967285156	37.24094772338867	283.4544067382812	111.3209991455078	88.86946105957031	191.0239410400391	473.9114685058594	438.8522338867188	728.9188232421875	374.5745239257812	684.8258056640625	728.7675170898438	596.724365234375	33.34243011474609	782.7733764648438	513.1136474609375	304.5582275390625	764.0773315429688	775.666015625	114.5520935058594	872.1838989257812	752.1671752929688	96.71662139892578	804.2554321289062	680.5149536132812	66.92825317382812	876.0302734375	575.7650756835938	17.81603240966797	704.7733764648438	
322	3.21	276.0978088378906	903.5216064453125	504.7149963378906	347.2505493164062	921.7672119140625	382.7106018066406	314.6569213867188	1005.438537597656	447.9447021484375	536.2942504882812	1198.228271484375	597.88671875	304.3276672363281	1128.868286132812	432.1766052246094	342.3478088378906	1396.522338867188	486.0433044433594	502.0326843261719	1311.94921875	582.0515747070312	240.8076019287109	1269.531616210938	519.3007202148438	380.2232360839844	1357.6357421875	382.9603271484375	510.5113220214844	1379.192749023438	388.5723266601562	581.358154296875	1269.3056640625	308.1451110839844	671.7625122070312	1072.564086914062	308.6363220214844	578.7825927734375	1026.729858398438	300.64404296875	754.1828002929688	920.54296875	443.6058044433594	772.2423706054688	889.5013427734375	378.6674194335938	718.9412231445312	1000.709533691406	336.5220031738281	819.28173828125	772.8848266601562	493.2048034667969	804.69970703125	820.8946533203125	407.5150146484375	802.3751831054688	849.4110107421875	472.4860229492188	304.4099426269531	1354.198852539062	656.6365966796875	245.8040771484375	1288.976196289062	704.4699096679688	216.1550598144531	998.712646484375	734.1343383789062	195.4523162841797	986.979736328125	670.1874389648438	324.5626220703125	797.2005004882812	740.244140625	239.0556640625	780.232177734375	747.0632934570312	213.5580902099609	939.7474365234375	740.6116943359375	323.5119934082031	638.52392578125	737.1260986328125	331.3824157714844	697.3182373046875	754.6599731445312	256.0031127929688	693.6009521484375	749.6688232421875	345.4162292480469	1586.593627929688	608.4154663085938	546.3412475585938	1616.087280273438	568.864990234375	466.4834899902344	1609.324829101562	672.1781616210938	441.3998107910156	1600.676025390625	459.0640563964844	514.745361328125	821.157958984375	333.9279479980469	325.2397155761719	806.8643798828125	692.2005004882812	440.4862670898438	855.6243896484375	676.2410888671875	569.8974609375	845.5910034179688	453.6396789550781	398.2044372558594	410.7167663574219	319.5822448730469	470.9190368652344	554.1493530273438	336.5837097167969	181.8324279785156	66.84709167480469	194.9936218261719	332.9660949707031	271.6974182128906	273.4776000976562	281.3715209960938	37.82260513305664	400.8415222167969	217.6971130371094	52.6446647644043	366.8359680175781	293.0327453613281	37.24619674682617	283.80517578125	114.4983901977539	95.23601531982422	191.3087615966797	485.35986328125	439.7913513183594	737.2764892578125	385.8053588867188	685.809814453125	738.0453491210938	598.78515625	33.03529739379883	783.21630859375	523.7737426757812	304.2245178222656	770.5491333007812	782.2744140625	102.3204193115234	874.6566162109375	757.74267578125	87.48299407958984	806.2835083007812	684.4347534179688	60.55134963989258	877.413330078125	576.9461669921875	19.81631088256836	705.0977783203125	
